<svg xmlns="http://www.w3.org/2000/svg" viewBox="0 0 228.66 172.67"><defs><style>.cls-1{font-size:37px;font-family:Futura-Bold, Futura;font-weight:700;}.cls-1,.cls-2{fill:#51b797;}</style></defs><title>Aktiv 3</title><g id="Lag_2" data-name="Lag 2"><g id="Lag_1-2" data-name="Lag 1"><text class="cls-1" transform="translate(0 32.45)">FLIGHT APP</text><path class="cls-2" d="M170.34,47.88l-38.06,16.5-37.69-9a7.94,7.94,0,0,0-5.06.56l-8.81,4.31A7.15,7.15,0,0,0,76.59,67a7.44,7.44,0,0,0,4.31,6.75L98.9,82,70.21,96.63,46.4,88.38a9.81,9.81,0,0,0-6.94.37,9.37,9.37,0,0,0-5.25,7.12,9.18,9.18,0,0,0,3.19,8.25l23.25,19.5a7.71,7.71,0,0,0,7.5,1.31l45-16.5-8.25,26.81a9.45,9.45,0,0,0,2.81,9.94,9.19,9.19,0,0,0,6,2.25,11,11,0,0,0,4.12-.94l7.31-3.56a9.6,9.6,0,0,0,4.31-4.31l21-44.06L185,78.44a17,17,0,0,0,8.62-9.75,17.2,17.2,0,0,0-.75-12.94A17,17,0,0,0,170.34,47.88Z"/><path class="cls-2" d="M184.21,163.3H49.48a5,5,0,0,0-4.94,4.32,4.65,4.65,0,0,0,4.67,5.05H184a5,5,0,0,0,4.94-4.32A4.65,4.65,0,0,0,184.21,163.3Z"/></g></g></svg>