<svg xmlns="http://www.w3.org/2000/svg" viewBox="0 0 277.5 197"><defs><style>.cls-1{fill:#ee465d;}.cls-2{font-size:37px;font-family:Futura-Bold, Futura;font-weight:700;}.cls-2,.cls-3{fill:#fff;}</style></defs><title>Aktiv 1</title><g id="Lag_2" data-name="Lag 2"><g id="Lag_1-2" data-name="Lag 1"><rect class="cls-1" width="277.5" height="197" rx="27.69" ry="27.69"/><text class="cls-2" transform="translate(24.42 41.78)">FLIGHT APP</text><path class="cls-3" d="M194.76,57.21,156.7,73.71l-37.69-9a7.94,7.94,0,0,0-5.06.56l-8.81,4.31A7.15,7.15,0,0,0,101,76.33a7.44,7.44,0,0,0,4.31,6.75l18,8.25L94.64,106,70.82,97.71a9.81,9.81,0,0,0-6.94.37,9.37,9.37,0,0,0-5.25,7.12,9.18,9.18,0,0,0,3.19,8.25L85.07,133a7.71,7.71,0,0,0,7.5,1.31l45-16.5-8.25,26.81a9.45,9.45,0,0,0,2.81,9.94,9.19,9.19,0,0,0,6,2.25,11,11,0,0,0,4.12-.94l7.31-3.56a9.6,9.6,0,0,0,4.31-4.31l21-44.06,34.5-16.12A17,17,0,0,0,218,78a17.2,17.2,0,0,0-.75-12.94A17,17,0,0,0,194.76,57.21Z"/><path class="cls-3" d="M208.63,172.63H73.9A5,5,0,0,0,69,176.95,4.65,4.65,0,0,0,73.64,182H208.37a5,5,0,0,0,4.94-4.32A4.65,4.65,0,0,0,208.63,172.63Z"/></g></g></svg>